<?xml version="1.0" encoding="utf-8"?>
<!-- Generator: Adobe Illustrator 19.2.1, SVG Export Plug-In . SVG Version: 6.00 Build 0)  -->
<svg version="1.1" id="Layer_1" xmlns="http://www.w3.org/2000/svg"  x="0px" y="0px"
	 width="230px" height="230px" viewBox="0 0 230 230" style="enable-background:new 0 0 230 230;" xml:space="preserve">
<style type="text/css">
	.st0{fill:#000;}
</style>
<g>
	<g>
		<path class="st0" d="M229.9,167.2v6.9c0,1.9-0.7,3.6-2,4.9c-1.3,1.3-3,2-4.9,2H7c-1.8,0-3.6-0.7-4.9-2c-1.3-1.3-2-3-2-4.9v-6.9
			h16.2h69.2l4.6,5H140l4.6-5h65.8H229.9z"/>
		<path class="st0" d="M210.2,53.7v110H143l-4.6,5H91.6l-4.6-5H19.8v-110c0-1.3,0.5-2.4,1.4-3.3s2.1-1.4,3.3-1.4h181
			c1.3,0,2.4,0.5,3.3,1.4C209.7,51.3,210.2,52.4,210.2,53.7z M200.3,153.8V58.9H29.7v94.8L200.3,153.8L200.3,153.8z"/>
	</g>
	<g id="XMLID_4_">
		<g>
			<polygon class="st0" points="136.3,85.2 142.8,91.8 105.7,128.7 87.2,110.3 93.7,103.8 105.7,115.6 			"/>
			<path class="st0" d="M142.8,91.8l-6.5-6.6l-30.5,30.5l-12-12l-6.5,6.5l18.5,18.5L142.8,91.8z"/>
		</g>
	</g>
</g>
</svg>
